name rise49.25peak52.1432fall72.8391.mot
datacolumns 19
datarows 26
range 10.28496200000000 10.32663600000000
endheader
time	ground_force1_vx	ground_force1_vy	ground_force1_vz	ground_force1_px	ground_force1_py	ground_force1_pz	ground_force2_vx	ground_force2_vy	ground_force2_vz	ground_force2_px	ground_force2_py	ground_force2_pz	ground_torque1_x	ground_torque1_y	ground_torque1_z	ground_torque2_x	ground_torque2_y	ground_torque2_z	
10.28496200000000	-44.30727300000000	774.46617600000002	57.52428100000000	0.11176800000000	0.00000000000000	0.13367900000000	-4.21160300000000	26.36814500000000	4.12135200000000	0.28050900000000	0.00000000000000	-0.07859600000000	0.00000000000000	25.46680800000000	0.00000000000000	0.00000000000000	1.87950800000000	0.00000000000000	
10.28662300000000	-44.94660200000000	772.92852600000003	57.28805700000000	0.11094800000000	0.00000000000000	0.13352000000000	-4.89304600000000	32.45810700000000	4.91265500000000	0.29047800000000	0.00000000000000	-0.07878400000000	0.00000000000000	25.45006900000000	0.00000000000000	0.00000000000000	2.31932200000000	0.00000000000000	
10.28829200000000	-45.59842600000000	771.33027700000002	57.03750300000000	0.11014400000000	0.00000000000000	0.13335900000000	-5.51808600000000	38.80114900000000	5.68903700000000	0.29946500000000	0.00000000000000	-0.07895200000000	0.00000000000000	25.43481800000000	0.00000000000000	0.00000000000000	2.77179200000000	0.00000000000000	
10.28995600000000	-46.26272200000000	769.66984600000001	56.77247900000000	0.10935700000000	0.00000000000000	0.13319400000000	-6.06141500000000	45.27907700000000	6.42792000000000	0.30760500000000	0.00000000000000	-0.07910600000000	0.00000000000000	25.42102700000000	0.00000000000000	0.00000000000000	3.22463800000000	0.00000000000000	
10.29162400000000	-46.93943000000000	767.94553399999995	56.49286200000000	0.10858600000000	0.00000000000000	0.13302700000000	-6.50216200000000	51.78511300000000	7.10986000000000	0.31500600000000	0.00000000000000	-0.07925000000000	0.00000000000000	25.40865200000000	0.00000000000000	0.00000000000000	3.66642800000000	0.00000000000000	
10.29328900000000	-47.62844500000000	766.15551800000003	56.19855000000000	0.10783100000000	0.00000000000000	0.13285700000000	-6.82497600000000	58.23080100000000	7.71961900000000	0.32175600000000	0.00000000000000	-0.07938700000000	0.00000000000000	25.39763200000000	0.00000000000000	0.00000000000000	4.08730900000000	0.00000000000000	
10.29495800000000	-48.32961700000000	764.29785100000004	55.88945700000000	0.10709100000000	0.00000000000000	0.13268400000000	-7.02051200000000	64.55042100000000	8.24675400000000	0.32792600000000	0.00000000000000	-0.07952100000000	0.00000000000000	25.38789600000000	0.00000000000000	0.00000000000000	4.47951500000000	0.00000000000000	
10.29662800000000	-49.04274700000000	762.37046399999997	55.56551900000000	0.10636500000000	0.00000000000000	0.13250900000000	-7.08536200000000	70.70284900000000	8.68571500000000	0.33357800000000	0.00000000000000	-0.07965400000000	0.00000000000000	25.37935500000000	0.00000000000000	0.00000000000000	4.83761700000000	0.00000000000000	
10.29828900000000	-49.76758400000000	760.37116300000002	55.22669200000000	0.10565200000000	0.00000000000000	0.13233200000000	-7.02151000000000	76.67108800000000	9.03553200000000	0.33876200000000	0.00000000000000	-0.07978700000000	0.00000000000000	25.37190900000000	0.00000000000000	0.00000000000000	5.15854500000000	0.00000000000000	
10.29995800000000	-50.50382300000000	758.29763300000002	54.87295100000000	0.10495100000000	0.00000000000000	0.13215200000000	-6.83543700000000	82.45989800000000	9.29917600000000	0.34352100000000	0.00000000000000	-0.07992100000000	0.00000000000000	25.36544100000000	0.00000000000000	0.00000000000000	5.44140800000000	0.00000000000000	
10.30162500000000	-51.25110200000000	756.14743599999997	54.50429500000000	0.10426100000000	0.00000000000000	0.13197000000000	-6.53702200000000	88.09204400000000	9.48270800000000	0.34789300000000	0.00000000000000	-0.08005800000000	0.00000000000000	25.35982300000000	0.00000000000000	0.00000000000000	5.68716000000000	0.00000000000000	
10.30329200000000	-52.00899900000000	753.91801699999996	54.12074300000000	0.10358200000000	0.00000000000000	0.13178600000000	-6.13834200000000	93.60371900000000	9.59432200000000	0.35190900000000	0.00000000000000	-0.08019800000000	0.00000000000000	25.35491300000000	0.00000000000000	0.00000000000000	5.89817300000000	0.00000000000000	
10.30495600000000	-52.77702700000000	751.60670600000003	53.72233500000000	0.10291200000000	0.00000000000000	0.13160000000000	-5.65251300000000	99.03966400000000	9.64337900000000	0.35559900000000	0.00000000000000	-0.08034100000000	0.00000000000000	25.35055700000000	0.00000000000000	0.00000000000000	6.07776900000000	0.00000000000000	
10.30663000000000	-53.55463700000000	749.21072200000003	53.30913600000000	0.10224900000000	0.00000000000000	0.13141200000000	-5.09263800000000	104.44843000000000	9.63950900000000	0.35898700000000	0.00000000000000	-0.08049000000000	0.00000000000000	25.34658600000000	0.00000000000000	0.00000000000000	6.22974500000000	0.00000000000000	
10.30829500000000	-54.34121000000000	746.72717799999998	52.88123000000000	0.10159300000000	0.00000000000000	0.13122300000000	-4.47094100000000	109.87813900000000	9.59185500000000	0.36209400000000	0.00000000000000	-0.08064200000000	0.00000000000000	25.34282200000000	0.00000000000000	0.00000000000000	6.35795800000000	0.00000000000000	
10.30996100000000	-55.13605800000000	744.15308700000003	52.43872700000000	0.10094200000000	0.00000000000000	0.13103200000000	-3.79811900000000	115.37299299999999	9.50847300000000	0.36494100000000	0.00000000000000	-0.08080000000000	0.00000000000000	25.33907200000000	0.00000000000000	0.00000000000000	6.46597200000000	0.00000000000000	
10.31163100000000	-55.93842100000000	741.48536799999999	51.98175900000000	0.10029500000000	0.00000000000000	0.13084000000000	-3.08291900000000	120.97066900000000	9.39592900000000	0.36754500000000	0.00000000000000	-0.08096300000000	0.00000000000000	25.33513500000000	0.00000000000000	0.00000000000000	6.55678900000000	0.00000000000000	
10.31329300000000	-56.74746700000000	738.72085700000002	51.51048000000000	0.09965100000000	0.00000000000000	0.13064600000000	-2.33194300000000	126.70063399999999	9.25906700000000	0.36992300000000	0.00000000000000	-0.08113100000000	0.00000000000000	25.33079600000000	0.00000000000000	0.00000000000000	6.63268400000000	0.00000000000000	
10.31496100000000	-57.56228600000000	735.85630600000002	51.02506700000000	0.09900800000000	0.00000000000000	0.13045200000000	-1.54964600000000	132.58335299999999	9.10096000000000	0.37208800000000	0.00000000000000	-0.08130400000000	0.00000000000000	25.32583300000000	0.00000000000000	0.00000000000000	6.69511800000000	0.00000000000000	
10.31662300000000	-58.38189400000000	732.88840500000003	50.52572000000000	0.09836600000000	0.00000000000000	0.13025600000000	-0.73849600000000	138.63029000000000	8.92299400000000	0.37405400000000	0.00000000000000	-0.08148200000000	0.00000000000000	25.32000900000000	0.00000000000000	0.00000000000000	6.74474700000000	0.00000000000000	
10.31829200000000	-59.20522900000000	729.81377699999996	50.01266200000000	0.09772200000000	0.00000000000000	0.13006000000000	0.10074500000000	144.84454099999999	8.72506600000000	0.37583300000000	0.00000000000000	-0.08166400000000	0.00000000000000	25.31308300000000	0.00000000000000	0.00000000000000	6.78148200000000	0.00000000000000	
10.31995500000000	-60.03115200000000	726.62900200000001	49.48613800000000	0.09707600000000	0.00000000000000	0.12986300000000	0.96866400000000	151.22195400000001	8.50585500000000	0.37743600000000	0.00000000000000	-0.08185200000000	0.00000000000000	25.30480000000000	0.00000000000000	0.00000000000000	6.80460600000000	0.00000000000000	
10.32162800000000	-60.85844500000000	723.33061699999996	48.94641500000000	0.09642700000000	0.00000000000000	0.12966600000000	1.86679800000000	157.75254899999999	8.26314100000000	0.37887300000000	0.00000000000000	-0.08204400000000	0.00000000000000	25.29489900000000	0.00000000000000	0.00000000000000	6.81292100000000	0.00000000000000	
10.32329400000000	-61.68581300000000	719.91513399999997	48.39378200000000	0.09577300000000	0.00000000000000	0.12946900000000	2.79724700000000	164.42208500000001	7.99412400000000	0.38015500000000	0.00000000000000	-0.08224100000000	0.00000000000000	25.28311100000000	0.00000000000000	0.00000000000000	6.80490500000000	0.00000000000000	
10.32496000000000	-62.51188200000000	716.37904900000001	47.82854800000000	0.09511200000000	0.00000000000000	0.12927100000000	3.76230100000000	171.21362600000000	7.69574000000000	0.38128900000000	0.00000000000000	-0.08244200000000	0.00000000000000	25.26915700000000	0.00000000000000	0.00000000000000	6.77887400000000	0.00000000000000	
10.32663600000000	-63.33520400000000	712.71885699999996	47.25104300000000	0.09444500000000	0.00000000000000	0.12907300000000	4.76413200000000	178.10899300000000	7.36493100000000	0.38228500000000	0.00000000000000	-0.08264700000000	0.00000000000000	25.25275400000000	0.00000000000000	0.00000000000000	6.73312700000000	0.00000000000000	
